<svg xmlns="http://www.w3.org/2000/svg" width="40" height="26.207" viewBox="0 0 40 26.207">
    <defs>
        <style>
            .prefix__cls-3{fill:#ff4b55}
        </style>
    </defs>
    <g id="prefix__eng_flag" transform="translate(0 -88.275)">
        <path id="prefix__Trazado_309" d="M37 88.276H3a3 3 0 00-3 3v20.216a3 3 0 003 3h34a3 3 0 003-3v-20.22a3 3 0 00-3-2.996z" data-name="Trazado 309" transform="translate(0 -.001)" style="fill:#41479b"/>
        <path id="prefix__Trazado_310" d="M39.959 90.776A3 3 0 0037 88.275h-.779l-12.773 8.371v-8.371h-6.9v8.371L3.775 88.275H3a3 3 0 00-2.954 2.5l10.92 7.155H0v6.9h10.962L.041 111.981A3 3 0 003 114.482h.779l12.777-8.371v8.371h6.9v-8.371l12.777 8.371H37a3 3 0 002.954-2.5l-10.92-7.155H40v-6.9H29.038z" data-name="Trazado 310" style="fill:#f5f5f5"/>
        <g id="prefix__Grupo_167" data-name="Grupo 167" transform="translate(0 88.275)">
            <path id="prefix__Trazado_311" d="M22.069 88.276h-4.138V99.31H0v4.138h17.931v11.034h4.138v-11.034H40V99.31H22.069z" class="prefix__cls-3" data-name="Trazado 311" transform="translate(0 -88.276)"/>
            <path id="prefix__Trazado_312" d="M10.379 309.121l13.839-8.983h-2.405L9.224 308.31a2.847 2.847 0 001.155.811z" class="prefix__cls-3" data-name="Trazado 312" transform="translate(-8.54 -283.098)"/>
            <path id="prefix__Trazado_313" d="M316.365 300.138h-2.405l13.4 8.7a2.856 2.856 0 00.911-.97z" class="prefix__cls-3" data-name="Trazado 313" transform="translate(-288.649 -283.098)"/>
            <path id="prefix__Trazado_314" d="M4.049 96.853l11.7 7.594h2.405L4.9 95.842a2.856 2.856 0 00-.851 1.011z" class="prefix__cls-3" data-name="Trazado 314" transform="translate(-3.749 -95.281)"/>
            <path id="prefix__Trazado_315" d="M302.543 99.619l12.612-8.187a2.848 2.848 0 00-1.164-.806l-13.853 8.992z" class="prefix__cls-3" data-name="Trazado 315" transform="translate(-275.852 -90.453)"/>
        </g>
    </g>
</svg>
