<svg xmlns="http://www.w3.org/2000/svg" width="257.688" height="55.718" viewBox="0 0 257.688 55.718">
    <defs>
        <style>
            .cls-2{fill:#fff}
        </style>
    </defs>
    <g id="Grupo_3174" transform="translate(-2626.365 -124.113)">
        <path id="Rectángulo_1825" fill="#978510" d="M0 0H111.069V55.718H0z" transform="translate(2626.365 124.113)"/>
        <path id="Rectángulo_1826" d="M0 0H6.174V27.135H0z" class="cls-2" transform="translate(2636.812 139.005)"/>
        <path id="Trazado_6772" d="M2767.111 235.929v-27.135h-6.135v12.073c0 2 .039 5.072.2 7.9l-10.932-19.978h-7.9v27.135h6.174v-11.8c0-1.966-.039-4.758-.236-7.629l10.618 19.427z" class="cls-2" transform="translate(-95.577 -69.789)"/>
        <path id="Trazado_6773" d="M2934.7 208.794h-9.438l-5.462 21.276-5.467-21.275h-9.674v27.135h6.175v-12.035c0-2.634 0-6.174-.079-8.966.51 2.792 1.415 6.332 2.162 8.927l3.5 12.073h6.528l3.422-12.073c.787-2.595 1.691-6.174 2.242-8.966-.079 2.792-.079 6.372-.079 9.006v12.034h6.174z" class="cls-2" transform="translate(-229.349 -69.789)"/>
        <path id="Trazado_6774" d="M3103.2 229.337c-4.523 0-7.275-3.5-7.275-9.555 0-6.1 2.752-9.556 7.275-9.556 4.484 0 7.236 3.46 7.236 9.556 0 6.056-2.751 9.555-7.236 9.555m0-23.674c-8.415 0-13.646 5.505-13.646 14.119 0 8.573 5.231 14.117 13.646 14.117 8.376 0 13.607-5.545 13.607-14.117.003-8.614-5.228-14.119-13.607-14.119z" class="cls-2" transform="translate(-381.735 -67.209)"/>
        <path id="Trazado_6775" d="M3295.342 235.929l9.792-27.135h-6.527l-7 22.377-6.882-22.377h-6.685l9.674 27.135z" class="cls-2" transform="translate(-537.071 -69.789)"/>
        <path id="Trazado_6776" d="M3434.882 214.142l2.871 9.282h-5.781zm4.405 14.118l2.478 7.668h6.685l-9.674-27.135h-7.629l-9.792 27.135h6.567l2.517-7.668z" class="cls-2" transform="translate(-655.184 -69.789)"/>
        <path id="Trazado_6777" d="M3601.575 230.736h-13.961v-21.944h-6.174v27.135h20.135z" class="cls-2" transform="translate(-787.118 -69.788)"/>
        <path id="Trazado_6778" d="M3728.123 230.736h-13.961v-21.944h-6.174v27.135h20.135z" class="cls-2" transform="translate(-891.41 -69.788)"/>
        <path id="Trazado_6779" d="M3854.672 231.09h-13.961v-6.37h12.663v-4.8h-12.663v-6.33h13.568v-4.8h-19.741v27.135h20.135z" class="cls-2" transform="translate(-995.705 -69.788)"/>
        <path id="Trazado_6780" d="M3963.623 225.47l9.556-16.674h-6.764l-5.664 11.326-5.9-11.326h-6.961l9.6 16.752v10.382h6.135z" class="cls-2" transform="translate(-1089.126 -69.791)"/>
        <g id="Grupo_3174-2" transform="translate(2741.976 171.833)">
            <path id="Trazado_6781" d="M3283.775 401.143v-5.676h.751v5.676z" class="cls-2" transform="translate(-3283.775 -395.467)"/>
        </g>
        <g id="Grupo_3175" transform="translate(2752.136 171.833)">
            <path id="Trazado_6782" d="M3341.547 401.143v-5.676h.771l2.981 4.456v-4.456h.72v5.676h-.771l-2.981-4.46v4.46z" class="cls-2" transform="translate(-3341.547 -395.467)"/>
        </g>
        <g id="Grupo_3176" transform="translate(2765.938 171.833)">
            <path id="Trazado_6783" d="M3420.033 401.143v-5.676h1.131l1.343 4.019q.186.561.271.84.1-.31.3-.91l1.359-3.949h1.01v5.676h-.724v-4.751l-1.649 4.751h-.678l-1.642-4.832v4.832z" class="cls-2" transform="translate(-3420.033 -395.467)"/>
        </g>
        <g id="Grupo_3177" transform="translate(2780.43 171.732)">
            <path id="Trazado_6784" d="M3502.439 397.906a3.084 3.084 0 0 1 .759-2.213 2.582 2.582 0 0 1 1.959-.8 2.719 2.719 0 0 1 1.417.376 2.456 2.456 0 0 1 .962 1.047 3.4 3.4 0 0 1 .331 1.524 3.343 3.343 0 0 1-.349 1.545 2.379 2.379 0 0 1-.987 1.032 2.821 2.821 0 0 1-1.378.35 2.684 2.684 0 0 1-1.433-.387 2.487 2.487 0 0 1-.956-1.057 3.2 3.2 0 0 1-.325-1.417zm.774.012a2.273 2.273 0 0 0 .552 1.616 1.925 1.925 0 0 0 2.78-.006 2.41 2.41 0 0 0 .548-1.692 2.9 2.9 0 0 0-.234-1.21 1.8 1.8 0 0 0-.685-.8 1.86 1.86 0 0 0-1.013-.284 1.922 1.922 0 0 0-1.373.548 2.449 2.449 0 0 0-.574 1.828z" class="cls-2" transform="translate(-3502.439 -394.894)"/>
        </g>
        <g id="Grupo_3178" transform="translate(2794.887 171.833)">
            <path id="Trazado_6785" d="M3584.647 401.143v-5.676h2.13a2.634 2.634 0 0 1 1.043.172 1.339 1.339 0 0 1 .616.53 1.4 1.4 0 0 1 .223.749 1.289 1.289 0 0 1-.2.685 1.41 1.41 0 0 1-.6.519 1.483 1.483 0 0 1 .792.515 1.379 1.379 0 0 1 .277.86 1.661 1.661 0 0 1-.168.741 1.434 1.434 0 0 1-.416.528 1.736 1.736 0 0 1-.622.281 3.774 3.774 0 0 1-.916.095zm.751-3.291h1.227a2.744 2.744 0 0 0 .716-.066.8.8 0 0 0 .432-.283.813.813 0 0 0 .145-.5.911.911 0 0 0-.136-.5.685.685 0 0 0-.387-.294 3.234 3.234 0 0 0-.864-.079h-1.131zm0 2.621h1.413a3.248 3.248 0 0 0 .511-.027 1.226 1.226 0 0 0 .434-.155.822.822 0 0 0 .286-.315.987.987 0 0 0 .112-.478.944.944 0 0 0-.162-.552.86.86 0 0 0-.451-.329 2.792 2.792 0 0 0-.83-.095h-1.311z" class="cls-2" transform="translate(-3584.647 -395.467)"/>
        </g>
        <g id="Grupo_3179" transform="translate(2808.427 171.833)">
            <path id="Trazado_6786" d="M3661.639 401.143v-5.676h.751v5.676z" class="cls-2" transform="translate(-3661.639 -395.467)"/>
        </g>
        <g id="Grupo_3180" transform="translate(2818.563 171.833)">
            <path id="Trazado_6787" d="M3719.276 401.143v-5.676h.751v5.006h2.8v.67z" class="cls-2" transform="translate(-3719.276 -395.467)"/>
        </g>
        <g id="Grupo_3181" transform="translate(2831.224 171.833)">
            <path id="Trazado_6788" d="M3791.27 401.143v-5.676h.751v5.676z" class="cls-2" transform="translate(-3791.27 -395.467)"/>
        </g>
        <g id="Grupo_3182" transform="translate(2840.767 171.833)">
            <path id="Trazado_6789" d="M3845.54 401.143l2.18-5.676h.809l2.323 5.676H3850l-.662-1.719h-2.373l-.623 1.719zm1.638-2.331h1.924l-.593-1.572q-.271-.716-.4-1.177a7.211 7.211 0 0 1-.306 1.084z" class="cls-2" transform="translate(-3845.54 -395.467)"/>
        </g>
        <g id="Grupo_3183" transform="translate(2854.783 171.833)">
            <path id="Trazado_6790" d="M3925.238 401.143v-5.676h2.517a3.346 3.346 0 0 1 1.154.153 1.261 1.261 0 0 1 .631.54 1.611 1.611 0 0 1 .236.856 1.429 1.429 0 0 1-.391 1.018 1.981 1.981 0 0 1-1.208.527 1.946 1.946 0 0 1 .453.283 3.9 3.9 0 0 1 .623.755l.988 1.545h-.945l-.751-1.181q-.329-.511-.542-.782a1.707 1.707 0 0 0-.381-.379 1.133 1.133 0 0 0-.343-.151 2.271 2.271 0 0 0-.418-.027h-.871v2.521zm.751-3.171h1.614a2.418 2.418 0 0 0 .805-.106.854.854 0 0 0 .441-.341.92.92 0 0 0 .151-.509.846.846 0 0 0-.292-.662 1.369 1.369 0 0 0-.924-.259h-1.8z" class="cls-2" transform="translate(-3925.238 -395.467)"/>
        </g>
        <g id="Grupo_3184" transform="translate(2868.718 171.833)">
            <path id="Trazado_6791" d="M4004.475 401.143v-5.676h.751v5.676z" class="cls-2" transform="translate(-4004.475 -395.467)"/>
        </g>
        <g id="Grupo_3185" transform="translate(2878.261 171.833)">
            <path id="Trazado_6792" d="M4058.744 401.143l2.18-5.676h.809l2.323 5.676h-.856l-.662-1.719h-2.373l-.623 1.719zm1.638-2.331h1.925l-.593-1.572q-.271-.716-.4-1.177a7.268 7.268 0 0 1-.306 1.084z" class="cls-2" transform="translate(-4058.744 -395.467)"/>
        </g>
    </g>
</svg>
